<svg aria-hidden="true" focusable="false" class="icon icon-facebook" viewBox="-4 0 16 16">
  <path fill="currentColor" d="M7.80181 6.57909L7.56044 8.66955C7.55042 8.76493 7.50573 8.85332 7.43484 8.91792C7.36395 8.98253 7.2718 9.01885 7.1759 9.02H4.99408L4.98317 15.2177C4.98391 15.2912 4.95571 15.362 4.90468 15.4148C4.85364 15.4676 4.78387 15.4982 4.71044 15.5H2.49999C2.46324 15.5 2.42686 15.4926 2.39304 15.4782C2.35922 15.4639 2.32865 15.4428 2.30318 15.4163C2.27771 15.3898 2.25785 15.3584 2.2448 15.3241C2.23176 15.2897 2.22579 15.2531 2.22726 15.2164V9.02H0.590897C0.539502 9.01947 0.488715 9.00881 0.441437 8.98865C0.394159 8.96849 0.351315 8.93921 0.315353 8.90249C0.279391 8.86576 0.251015 8.82232 0.231844 8.77463C0.212674 8.72694 0.203084 8.67594 0.203624 8.62455L0.195442 6.53409C0.194721 6.48252 0.204167 6.4313 0.22324 6.38338C0.242312 6.33545 0.270639 6.29176 0.306602 6.25478C0.342564 6.21781 0.385459 6.18828 0.432835 6.16788C0.480211 6.14748 0.53114 6.13662 0.582715 6.13591H2.22726V4.11773C2.22726 1.775 3.61817 0.5 5.65817 0.5H7.32999C7.38168 0.500533 7.43276 0.511267 7.48029 0.531584C7.52782 0.551901 7.57088 0.581402 7.60698 0.618395C7.64309 0.655389 7.67154 0.699147 7.6907 0.747159C7.70985 0.795171 7.71934 0.846493 7.71862 0.898182V2.65727C7.71934 2.70896 7.70985 2.76028 7.6907 2.8083C7.67154 2.85631 7.64309 2.90007 7.60698 2.93706C7.57088 2.97405 7.52782 3.00355 7.48029 3.02387C7.43276 3.04419 7.38168 3.05492 7.32999 3.05545H6.30453C5.1959 3.05545 4.98044 3.60091 4.98044 4.38909V6.13591H7.41726C7.47268 6.1366 7.52732 6.14902 7.5776 6.17234C7.62787 6.19566 7.67264 6.22936 7.70897 6.27122C7.74529 6.31308 7.77234 6.36216 7.78834 6.41522C7.80434 6.46828 7.80893 6.52413 7.80181 6.57909Z"></path>
</svg>