<svg aria-hidden="true" focusable="false" class="icon icon-pinterest" viewBox="-2 0 15 15">
  <path fill="currentColor" d="M6.36303 0.254395C2.13451 0.254395 0.0038147 3.1899 0.0038147 5.63711C0.0038147 7.11912 0.582809 8.43759 1.82631 8.92884C2.02955 9.00909 2.21335 8.93181 2.27184 8.71358L2.45334 8.0213C2.51331 7.80603 2.49008 7.72958 2.32581 7.54133C1.96653 7.13254 1.73857 6.60232 1.73857 5.85156C1.73857 3.67432 3.42085 1.72503 6.11934 1.72503C8.50962 1.72503 9.82208 3.13882 9.82208 5.02657C9.82208 7.51061 8.68658 9.60761 7.0006 9.60761C6.07057 9.60761 5.3731 8.86285 5.59661 7.94708C5.86362 6.85656 6.38264 5.6783 6.38264 4.89006C6.38264 4.18584 5.99189 3.5963 5.18189 3.5963C4.23011 3.5963 3.46592 4.54956 3.46592 5.82676C3.46592 6.64055 3.75014 7.1903 3.75014 7.1903L2.60492 11.886C2.26517 13.2788 2.55467 14.9873 2.57864 15.1598C2.59364 15.2618 2.72866 15.2858 2.79012 15.2093C2.87786 15.0983 4.01113 13.743 4.39661 12.3886C4.5061 12.0053 5.02289 10.02 5.02289 10.02C5.33191 10.5923 6.23566 11.0948 7.19643 11.0948C10.0561 11.0948 11.9972 8.56957 11.9972 5.19002C11.9963 2.63488 9.76128 0.254395 6.36303 0.254395Z"></path>
</svg>