<svg xmlns="http://www.w3.org/2000/svg" fill="none" viewBox="0 0 78 14" height="14" width="78">
	<path d="M13.962 5.294c.046.143.05.29.014.442a.73.73 0 0 1-.233.386l-3.05 2.796.903 4.139c.027.152.013.3-.041.442a.735.735 0 0 1-.246.357.674.674 0 0 1-.41.142.696.696 0 0 1-.411-.1L7 11.716 3.512 13.9a.912.912 0 0 1-.191.07.668.668 0 0 1-.424-.013.59.59 0 0 1-.206-.1.83.83 0 0 1-.26-.357.906.906 0 0 1-.027-.442l.903-4.139-3.05-2.796a.73.73 0 0 1-.233-.386.808.808 0 0 1 .014-.442.773.773 0 0 1 .233-.371.786.786 0 0 1 .396-.171l4.049-.371 1.6-3.91A.709.709 0 0 1 6.59.128a.723.723 0 0 1 .82 0c.128.086.22.2.274.343l1.6 3.91 4.049.37a.711.711 0 0 1 .383.172c.118.095.2.219.246.371ZM29.962 5.294c.046.143.05.29.014.442a.73.73 0 0 1-.233.386l-3.05 2.796.903 4.139c.027.152.013.3-.041.442a.735.735 0 0 1-.247.357.674.674 0 0 1-.41.142.696.696 0 0 1-.41-.1L23 11.716 19.512 13.9a.915.915 0 0 1-.191.07.669.669 0 0 1-.424-.013.59.59 0 0 1-.205-.1.83.83 0 0 1-.26-.357.905.905 0 0 1-.028-.442l.903-4.139-3.05-2.796a.73.73 0 0 1-.233-.386.808.808 0 0 1 .014-.442.773.773 0 0 1 .232-.371.786.786 0 0 1 .397-.171l4.049-.371 1.6-3.91a.709.709 0 0 1 .274-.343.723.723 0 0 1 .82 0c.128.086.22.2.274.343l1.6 3.91 4.049.37a.711.711 0 0 1 .383.172c.118.095.2.219.246.371ZM45.962 5.294c.046.143.05.29.014.442a.73.73 0 0 1-.233.386l-3.05 2.796.903 4.139c.027.152.013.3-.041.442a.735.735 0 0 1-.246.357.674.674 0 0 1-.41.142.696.696 0 0 1-.411-.1L39 11.716 35.512 13.9a.915.915 0 0 1-.191.07.669.669 0 0 1-.424-.013.59.59 0 0 1-.206-.1.83.83 0 0 1-.26-.357.905.905 0 0 1-.027-.442l.903-4.139-3.05-2.796a.73.73 0 0 1-.233-.386.808.808 0 0 1 .014-.442.773.773 0 0 1 .233-.371.786.786 0 0 1 .396-.171l4.049-.371 1.6-3.91a.709.709 0 0 1 .274-.343.723.723 0 0 1 .82 0c.128.086.22.2.274.343l1.6 3.91 4.049.37a.711.711 0 0 1 .383.172c.118.095.2.219.246.371ZM61.962 5.294c.046.143.05.29.014.442a.73.73 0 0 1-.233.386l-3.05 2.796.903 4.139c.027.152.013.3-.041.442a.735.735 0 0 1-.246.357.674.674 0 0 1-.41.142.696.696 0 0 1-.411-.1L55 11.716 51.512 13.9a.915.915 0 0 1-.191.07.669.669 0 0 1-.424-.013.59.59 0 0 1-.206-.1.83.83 0 0 1-.26-.357.905.905 0 0 1-.027-.442l.903-4.139-3.05-2.796a.73.73 0 0 1-.233-.386.808.808 0 0 1 .014-.442.773.773 0 0 1 .233-.371.786.786 0 0 1 .396-.171l4.049-.371 1.6-3.91a.709.709 0 0 1 .274-.343.723.723 0 0 1 .82 0c.128.086.22.2.274.343l1.6 3.91 4.049.37a.711.711 0 0 1 .383.172c.118.095.2.219.246.371ZM77.962 5.294c.046.143.05.29.014.442a.73.73 0 0 1-.233.386l-3.05 2.796.903 4.139c.027.152.013.3-.041.442a.735.735 0 0 1-.247.357.674.674 0 0 1-.41.142.696.696 0 0 1-.41-.1L71 11.716 67.512 13.9a.915.915 0 0 1-.191.07.669.669 0 0 1-.424-.013.59.59 0 0 1-.206-.1.83.83 0 0 1-.26-.357.905.905 0 0 1-.027-.442l.903-4.139-3.05-2.796a.73.73 0 0 1-.233-.386.808.808 0 0 1 .014-.442.773.773 0 0 1 .233-.371.786.786 0 0 1 .396-.171l4.049-.371 1.6-3.91a.709.709 0 0 1 .274-.343.723.723 0 0 1 .82 0c.128.086.22.2.274.343l1.6 3.91 4.049.37a.711.711 0 0 1 .383.172c.118.095.2.219.246.371Z" fill="#ff9c05"></path>
</svg>
