<svg class="icon icon-cart" width="18" height="18" viewBox="0 0 18 18" fill="none" xmlns="http://www.w3.org/2000/svg">
<g clip-path="url(#clip0_1431_309)">
<path d="M1.224 15.507C1.9008 15.507 2.4498 16.065 2.4498 16.7544C2.4498 17.4429 1.9008 18.0018 1.2249 18.0018C0.5481 18.0018 0 17.4438 0 16.7544C0 16.0659 0.549 15.5079 1.224 15.5079V15.507ZM15.1047 15.507C15.7815 15.507 16.3287 16.065 16.3287 16.7544C16.3287 17.4429 15.7815 18.0018 15.1047 18.0018C14.4288 18.0018 13.8807 17.4438 13.8807 16.7544C13.8807 16.0659 14.4288 15.5079 15.1047 15.5079V15.507ZM17.9748 0.448234C18.0212 0.605766 18.0038 0.775233 17.9264 0.920046C17.8489 1.06486 17.7176 1.1734 17.5608 1.22223C16.9182 1.41573 16.5006 1.65963 16.2963 1.92693C16.0812 2.20863 15.9633 2.55333 15.9426 2.94483V11.5497C15.9066 12.5523 15.6753 13.3425 15.2244 13.9077C14.7555 14.4981 14.0355 14.8302 13.0428 14.9265H3.195C2.3157 14.9265 1.5894 14.697 1.0386 14.2227C0.4878 13.7484 0.1476 13.0617 0.0081 12.1887L0 12.0888V6.74283C0.0414 5.81583 0.3321 5.05083 0.8793 4.47843C1.4364 3.89793 2.214 3.60093 3.195 3.57393H11.7612C12.0996 3.57393 12.3732 3.85293 12.3732 4.19673C12.3746 4.36057 12.311 4.51827 12.1962 4.63521C12.0815 4.75215 11.925 4.81877 11.7612 4.82043H3.2112C2.5452 4.83843 2.0718 5.01933 1.7559 5.34963C1.4319 5.68803 1.2519 6.16053 1.2249 6.77073V12.0357C1.3239 12.6063 1.5273 13.0086 1.8297 13.2687C2.1402 13.5369 2.5875 13.6782 3.195 13.6782L12.9825 13.6809C13.6134 13.6179 14.0319 13.4253 14.2731 13.1211C14.5341 12.7935 14.6907 12.2571 14.7177 11.5254V2.91243C14.7519 2.24013 14.9553 1.64973 15.3297 1.15923C15.7158 0.655234 16.3476 0.286234 17.2143 0.0252343C17.2919 0.00245629 17.3732 -0.00469677 17.4536 0.00418972C17.534 0.0130762 17.6118 0.0378255 17.6825 0.0770033C17.7533 0.116181 17.8155 0.169008 17.8657 0.232424C17.9159 0.295839 17.9529 0.368581 17.9748 0.446434V0.448234ZM11.7612 10.3842C12.0996 10.3842 12.3732 10.6632 12.3732 11.007C12.3746 11.1709 12.311 11.3286 12.1962 11.4455C12.0815 11.5625 11.925 11.6291 11.7612 11.6307H4.2831C4.11927 11.6291 3.9628 11.5625 3.84805 11.4455C3.7333 11.3286 3.66966 11.1709 3.6711 11.007C3.6711 10.6623 3.9456 10.3833 4.2831 10.3833H11.7612V10.3842ZM11.7612 7.05783C12.0996 7.05783 12.3732 7.33683 12.3732 7.68153C12.3746 7.84537 12.311 8.00307 12.1962 8.12001C12.0815 8.23695 11.925 8.30357 11.7612 8.30523H4.2831C4.11927 8.30357 3.9628 8.23695 3.84805 8.12001C3.7333 8.00307 3.66966 7.84537 3.6711 7.68153C3.6711 7.33773 3.9456 7.05783 4.2831 7.05783H11.7612Z" fill="currentcolor"></path>
</g>
<defs>
<clipPath id="clip0_1431_309">
<rect width="18" height="18" fill="currentcolor"></rect>
</clipPath>
</defs>
</svg>