<svg width="10" height="8" viewBox="0 0 10 8" fill="none">
                          <path d="M9.04948 0.651625C9.16233 0.550542 9.29253 0.5 9.4401 0.5C9.59635 0.5 9.72656 0.550542 9.83073 0.651625C9.94358 0.761131 10 0.891697 10 1.04332C10 1.18652 9.94358 1.30866 9.83073 1.40975L3.72396 7.34838C3.61979 7.44946 3.48958 7.5 3.33333 7.5C3.17708 7.5 3.04688 7.44946 2.94271 7.34838L0.169271 4.6444C0.0564236 4.54332 0 4.42118 0 4.27798C0 4.12635 0.0564236 3.99579 0.169271 3.88628C0.273438 3.7852 0.399306 3.73466 0.546875 3.73466C0.703125 3.73466 0.837674 3.7852 0.950521 3.88628L3.33333 6.19856L9.04948 0.651625Z" fill="currentColor"></path>
                        </svg>