<svg class="icon icon-whishlist" width="18" height="17" viewBox="0 0 18 17" fill="none" xmlns="http://www.w3.org/2000/svg">
<path d="M13.1456 1.28547C13.6136 1.28507 14.0769 1.3781 14.5085 1.55911C14.94 1.74011 15.3311 2.00544 15.6587 2.33955C16.3339 3.02495 16.7123 3.94841 16.7123 4.91048C16.7123 5.87255 16.3339 6.79602 15.6587 7.48141L9 14.2237L2.34129 7.48141C1.66615 6.79602 1.28771 5.87255 1.28771 4.91048C1.28771 3.94841 1.66615 3.02495 2.34129 2.33955C2.66914 2.00568 3.06023 1.74049 3.49172 1.55946C3.92321 1.37843 4.38645 1.28519 4.85437 1.28519C5.3223 1.28519 5.78553 1.37843 6.21702 1.55946C6.64851 1.74049 7.03961 2.00568 7.36746 2.33955L9 4.01066L10.6261 2.3524C10.9528 2.01432 11.3443 1.74558 11.7772 1.56225C12.2101 1.37893 12.6755 1.28479 13.1456 1.28547ZM13.1456 1.72436e-06C12.5065 -0.00053992 11.8737 0.126527 11.2843 0.373752C10.695 0.620977 10.1609 0.983384 9.71343 1.43972L9 2.15958L8.28657 1.43972C7.83855 0.984207 7.30434 0.62243 6.71508 0.37548C6.12581 0.12853 5.49329 0.00134809 4.85437 0.00134809C4.21546 0.00134809 3.58293 0.12853 2.99367 0.37548C2.40441 0.62243 1.8702 0.984207 1.42218 1.43972C0.510705 2.36759 0 3.61625 0 4.91691C0 6.21757 0.510705 7.46623 1.42218 8.39409L9 16.0683L16.5778 8.39409C17.4893 7.46623 18 6.21757 18 4.91691C18 3.61625 17.4893 2.36759 16.5778 1.43972C16.1299 0.983964 15.5958 0.621938 15.0065 0.374754C14.4172 0.127571 13.7846 0.000177457 13.1456 1.72436e-06Z" fill="currentcolor"></path>
</svg>