<svg class="icon icon-account" width="16" height="18" viewBox="0 0 16 18" fill="none" xmlns="http://www.w3.org/2000/svg">
<path d="M8 9.33333C9.06087 9.33333 10.0783 8.91191 10.8284 8.16176C11.5786 7.41161 12 6.3942 12 5.33333C12 4.27247 11.5786 3.25505 10.8284 2.50491C10.0783 1.75476 9.06087 1.33333 8 1.33333C6.93913 1.33333 5.92172 1.75476 5.17157 2.50491C4.42143 3.25505 4 4.27247 4 5.33333C4 6.3942 4.42143 7.41161 5.17157 8.16176C5.92172 8.91191 6.93913 9.33333 8 9.33333ZM8 10.6667C6.58551 10.6667 5.22896 10.1048 4.22876 9.10457C3.22857 8.10438 2.66667 6.74782 2.66667 5.33333C2.66667 3.91885 3.22857 2.56229 4.22876 1.5621C5.22896 0.561903 6.58551 0 8 0C9.41449 0 10.771 0.561903 11.7712 1.5621C12.7714 2.56229 13.3333 3.91885 13.3333 5.33333C13.3333 6.74782 12.7714 8.10438 11.7712 9.10457C10.771 10.1048 9.41449 10.6667 8 10.6667ZM14.6667 17.3333V15.3333C14.6667 14.8029 14.456 14.2942 14.0809 13.9191C13.7058 13.544 13.1971 13.3333 12.6667 13.3333H3.33333C2.8029 13.3333 2.29419 13.544 1.91912 13.9191C1.54405 14.2942 1.33333 14.8029 1.33333 15.3333V17.3333C1.33333 17.5101 1.2631 17.6797 1.13807 17.8047C1.01305 17.9298 0.843478 18 0.666667 18C0.489856 18 0.320287 17.9298 0.195262 17.8047C0.070238 17.6797 0 17.5101 0 17.3333V15.3333C0 14.4493 0.351189 13.6014 0.976311 12.9763C1.60143 12.3512 2.44928 12 3.33333 12H12.6667C13.5507 12 14.3986 12.3512 15.0237 12.9763C15.6488 13.6014 16 14.4493 16 15.3333V17.3333C16 17.5101 15.9298 17.6797 15.8047 17.8047C15.6797 17.9298 15.5101 18 15.3333 18C15.1565 18 14.987 17.9298 14.8619 17.8047C14.7369 17.6797 14.6667 17.5101 14.6667 17.3333Z" fill="currentcolor"></path>
</svg>