<svg class="icon icon-compare" version="1.0" xmlns="http://www.w3.org/2000/svg" width="18" height="18" viewBox="0 0 512.000000 512.000000" preserveAspectRatio="xMidYMid meet">

<g transform="translate(0.000000,512.000000) scale(0.100000,-0.100000)" stroke="none">
<path d="M2311 5110 c-1008 -98 -1864 -783 -2181 -1749 -78 -236 -117 -450
-126 -695 -6 -140 -6 -141 23 -196 59 -115 193 -153 300 -84 75 49 102 117
103 256 0 42 7 130 15 195 117 892 785 1620 1660 1808 461 99 940 40 1370
-170 144 -70 217 -115 348 -214 l89 -66 -119 -6 c-135 -8 -157 -14 -213 -65
-108 -98 -79 -279 55 -340 l54 -25 404 3 405 3 44 30 c23 17 54 51 68 75 l25
45 0 410 0 410 -28 47 c-39 67 -103 103 -182 103 -66 -1 -104 -17 -149 -61
-50 -51 -59 -80 -64 -205 l-4 -117 -82 66 c-343 277 -775 463 -1226 527 -136
20 -456 27 -589 15z"></path>
<path d="M4846 2760 c-107 -32 -155 -120 -156 -282 0 -42 -7 -130 -15 -195
-117 -892 -785 -1620 -1660 -1808 -605 -130 -1255 18 -1738 397 l-57 46 129 4
c122 3 131 5 177 33 70 44 108 118 101 199 -7 79 -44 132 -116 169 l-55 27
-380 0 c-248 0 -395 -4 -421 -11 -62 -17 -130 -91 -144 -157 -14 -68 -15 -729
0 -792 15 -67 54 -116 116 -146 45 -23 62 -26 109 -21 68 7 123 41 161 99 25
37 28 52 33 159 l5 118 70 -55 c348 -276 763 -451 1230 -521 167 -24 523 -24
690 1 150 22 390 83 521 131 374 138 752 393 1011 684 405 454 632 1009 660
1609 5 127 4 141 -16 187 -29 65 -46 83 -106 111 -51 24 -99 29 -149 14z"></path>
</g>
</svg>